<svg xmlns="http://www.w3.org/2000/svg"  viewBox="0 0 48 48" width="48px" height="48px"><path fill="#dd7c12" d="M44,5H9v27h35V5L44,5z"/><rect width="31" height="24" x="11" y="7" fill="#009688"/><path fill="#773d04" d="M46,35v-2c0-1.1-0.9-2-2-2H9c-1.1,0-2,0.9-2,2v2H46z"/><path fill="#ffb74d" d="M20.5,28c-0.259,0-0.518-0.067-0.75-0.201l-4.458-2.576l1.501-2.598l3.677,2.125L28,20v3	l-6.705,4.772C21.052,27.924,20.776,28,20.5,28z"/><polygon fill="#ffb74d" points="5,41 2,39 2,28 5,30"/><path fill="#455a64" d="M17.81,27.39L16,27l1,16H4l1-13l-3-2c0-1.84,0.27-3.54,1.06-4.9c0.79-1.35,2.09-2.36,4.15-2.82	c0.25-0.06,0.51-0.1,0.79-0.14C8.6,20.05,9.26,20,9.97,20h1c0.35,0,0.7,0.03,1.03,0.07c0.3,0.03,0.58,0.08,0.84,0.14	c0.17,0.04,0.34,0.08,0.5,0.12c0.36,0.1,0.75,0.29,1.16,0.51c0.33,0.19,3.29,1.91,5.1,2.96L17.81,27.39z"/><rect width="12" height="2" x="19" y="10" fill="#fff"/><rect width="20" height="2" x="19" y="15" fill="#fff"/><rect width="6" height="2" x="33" y="10" fill="#fff"/><path fill="#ff9800" d="M10,22L10,22c-1.105,0-2-0.895-2-2v-2h4v2C12,21.105,11.105,22,10,22z"/><path fill="#bf360c" d="M6,11h8v8l-4-1l-4,1V11z"/><path fill="#ffb74d" d="M10,19c-2.8,0-5-2.2-5-5s2.3-5,5-5c2.8,0,5,2.2,5,5S12.7,19,10,19"/><path fill="#ff5722" d="M10,6C7.18,6,3,8,3,17l3,2v-7l6-2l2,2v7l3-2c0-1.869,0-10-5-10l-1-1H10z"/></svg>